<?xml version="1.0" encoding="UTF-8" standalone="no"?><svg xmlns="http://www.w3.org/2000/svg" xmlns:xlink="http://www.w3.org/1999/xlink" contentScriptType="application/ecmascript" contentStyleType="text/css" height="837px" preserveAspectRatio="none" style="width:3361px;height:837px;" version="1.1" viewBox="0 0 3361 837" width="3361px" zoomAndPan="magnify"><defs><filter height="300%" id="f1ttvc8gvhq3oo" width="300%" x="-1" y="-1"><feGaussianBlur result="blurOut" stdDeviation="2.0"/><feColorMatrix in="blurOut" result="blurOut2" type="matrix" values="0 0 0 0 0 0 0 0 0 0 0 0 0 0 0 0 0 0 .4 0"/><feOffset dx="4.0" dy="4.0" in="blurOut2" result="blurOut3"/><feBlend in="SourceGraphic" in2="blurOut3" mode="normal"/></filter></defs><g><!--MD5=[027ebfd53c01aea08f474edbf35d0797]
cluster Models--><polygon fill="#FFFFFF" filter="url(#f1ttvc8gvhq3oo)" points="1930,6,1993,6,2000,28.2969,3344,28.2969,3344,830,1930,830,1930,6" style="stroke:#000000;stroke-width:1.5;"/><line style="stroke:#000000;stroke-width:1.5;" x1="1930" x2="2000" y1="28.2969" y2="28.2969"/><text fill="#000000" font-family="sans-serif" font-size="14" font-weight="bold" lengthAdjust="spacingAndGlyphs" textLength="57" x="1934" y="20.9951">Models</text><!--MD5=[6618f0b8c615852d344f97424006fc9f]
cluster Implementations--><polygon fill="#FFFFFF" filter="url(#f1ttvc8gvhq3oo)" points="2004,417,2148,417,2155,439.2969,3320,439.2969,3320,806,2004,806,2004,417" style="stroke:#000000;stroke-width:1.5;"/><line style="stroke:#000000;stroke-width:1.5;" x1="2004" x2="2155" y1="439.2969" y2="439.2969"/><text fill="#000000" font-family="sans-serif" font-size="14" font-weight="bold" lengthAdjust="spacingAndGlyphs" textLength="138" x="2008" y="431.9951">Implementations</text><!--MD5=[96bd00c8da59aa6396cee5cd1081a36d]
cluster Jobbs--><polygon fill="#FFFFFF" filter="url(#f1ttvc8gvhq3oo)" points="2315,460,2365,460,2372,482.2969,3296,482.2969,3296,782,2315,782,2315,460" style="stroke:#000000;stroke-width:1.5;"/><line style="stroke:#000000;stroke-width:1.5;" x1="2315" x2="2372" y1="482.2969" y2="482.2969"/><text fill="#000000" font-family="sans-serif" font-size="14" font-weight="bold" lengthAdjust="spacingAndGlyphs" textLength="44" x="2319" y="474.9951">Jobbs</text><!--MD5=[4fe24e7a78a2aa504d753135b030a7ea]
cluster Utility--><polygon fill="#FFFFFF" filter="url(#f1ttvc8gvhq3oo)" points="16,32,73,32,80,54.2969,487,54.2969,487,393,16,393,16,32" style="stroke:#000000;stroke-width:1.5;"/><line style="stroke:#000000;stroke-width:1.5;" x1="16" x2="80" y1="54.2969" y2="54.2969"/><text fill="#000000" font-family="sans-serif" font-size="14" font-weight="bold" lengthAdjust="spacingAndGlyphs" textLength="51" x="20" y="46.9951">Utility</text><!--MD5=[e5f667b5311306cc91fbdfbce3163ce7]
cluster Exceptions--><polygon fill="#FFFFFF" filter="url(#f1ttvc8gvhq3oo)" points="511,220.5,605,220.5,612,242.7969,1906,242.7969,1906,376.5,511,376.5,511,220.5" style="stroke:#000000;stroke-width:1.5;"/><line style="stroke:#000000;stroke-width:1.5;" x1="511" x2="612" y1="242.7969" y2="242.7969"/><text fill="#000000" font-family="sans-serif" font-size="14" font-weight="bold" lengthAdjust="spacingAndGlyphs" textLength="88" x="515" y="235.4951">Exceptions</text><!--MD5=[a4d0289457d61c2400ebeec93042d878]
class AbstractJobbParameters--><rect codeLine="3" fill="#FEFECE" filter="url(#f1ttvc8gvhq3oo)" height="86.4141" id="AbstractJobbParameters" style="stroke:#A80036;stroke-width:1.5;" width="191" x="2004.5" y="265"/><ellipse cx="2025.35" cy="281" fill="#A9DCDF" rx="11" ry="11" style="stroke:#A80036;stroke-width:1.0;"/><path d="M2027.4281,282.8125 L2027.8188,283.7969 L2027.4281,283.7969 C2026.975,283.7969 2026.8656,283.8125 2026.7094,283.9219 C2026.4594,284.0781 2026.3031,284.3594 2026.3031,284.6563 C2026.3031,284.9219 2026.4438,285.1719 2026.6625,285.3281 C2026.8031,285.4531 2027.0063,285.5 2027.4281,285.5 L2029.7875,285.5 C2030.1469,285.5 2030.3656,285.4688 2030.5063,285.375 C2030.7563,285.2344 2030.9125,284.9375 2030.9125,284.6563 C2030.9125,284.375 2030.7719,284.125 2030.5531,283.9688 C2030.3813,283.8281 2030.225,283.7969 2029.7563,283.7969 L2026.3656,275.5938 L2022.6938,275.5938 C2022.2406,275.5938 2022.1156,275.6094 2021.9594,275.7031 C2021.7094,275.875 2021.5531,276.1563 2021.5531,276.4375 C2021.5531,276.7188 2021.6938,276.9688 2021.9125,277.1406 C2022.0844,277.25 2022.2563,277.2813 2022.6938,277.2813 L2023.7719,277.2813 L2021.1313,283.7969 C2020.7094,283.7969 2020.5531,283.8125 2020.3969,283.9219 C2020.1469,284.0781 2019.9906,284.3594 2019.9906,284.6563 C2019.9906,285.2188 2020.3656,285.5 2021.1156,285.5 L2023.3813,285.5 C2023.7406,285.5 2023.9594,285.4688 2024.0844,285.375 C2024.35,285.2344 2024.4906,284.9375 2024.4906,284.6563 C2024.4906,284.375 2024.3656,284.125 2024.1469,283.9531 C2023.975,283.8281 2023.8344,283.7969 2023.3813,283.7969 L2022.9906,283.7969 L2023.3813,282.8125 L2027.4281,282.8125 Z M2026.725,281.1094 L2024.0531,281.1094 L2025.3969,277.8438 L2026.725,281.1094 Z " fill="#000000"/><text fill="#000000" font-family="sans-serif" font-size="12" font-style="italic" lengthAdjust="spacingAndGlyphs" textLength="146" x="2040.65" y="285.1543">AbstractJobbParameters</text><line style="stroke:#A80036;stroke-width:1.5;" x1="2005.5" x2="2194.5" y1="297" y2="297"/><ellipse cx="2015.5" cy="308" fill="none" rx="3" ry="3" style="stroke:#038048;stroke-width:1.0;"/><text fill="#000000" font-family="sans-serif" font-size="11" lengthAdjust="spacingAndGlyphs" textLength="72" x="2024.5" y="311.2104">Name: string</text><ellipse cx="2015.5" cy="320.8047" fill="none" rx="3" ry="3" style="stroke:#038048;stroke-width:1.0;"/><text fill="#000000" font-family="sans-serif" font-size="11" lengthAdjust="spacingAndGlyphs" textLength="115" x="2024.5" y="324.0151">Schedule: Schedule</text><ellipse cx="2015.5" cy="333.6094" fill="none" rx="3" ry="3" style="stroke:#038048;stroke-width:1.0;"/><text fill="#000000" font-family="sans-serif" font-size="11" lengthAdjust="spacingAndGlyphs" textLength="165" x="2024.5" y="336.8198">ReturnCode: JobbReturnCode</text><line style="stroke:#A80036;stroke-width:1.5;" x1="2005.5" x2="2194.5" y1="343.4141" y2="343.4141"/><!--MD5=[103a49d218dd4639eb2fcf7f038d5c15]
class AbstractJobb--><rect codeLine="10" fill="#FEFECE" filter="url(#f1ttvc8gvhq3oo)" height="137.6328" id="AbstractJobb" style="stroke:#A80036;stroke-width:1.5;" width="389" x="2335.5" y="41"/><ellipse cx="2486.75" cy="57" fill="#A9DCDF" rx="11" ry="11" style="stroke:#A80036;stroke-width:1.0;"/><path d="M2488.8281,58.8125 L2489.2188,59.7969 L2488.8281,59.7969 C2488.375,59.7969 2488.2656,59.8125 2488.1094,59.9219 C2487.8594,60.0781 2487.7031,60.3594 2487.7031,60.6563 C2487.7031,60.9219 2487.8438,61.1719 2488.0625,61.3281 C2488.2031,61.4531 2488.4063,61.5 2488.8281,61.5 L2491.1875,61.5 C2491.5469,61.5 2491.7656,61.4688 2491.9063,61.375 C2492.1563,61.2344 2492.3125,60.9375 2492.3125,60.6563 C2492.3125,60.375 2492.1719,60.125 2491.9531,59.9688 C2491.7813,59.8281 2491.625,59.7969 2491.1563,59.7969 L2487.7656,51.5938 L2484.0938,51.5938 C2483.6406,51.5938 2483.5156,51.6094 2483.3594,51.7031 C2483.1094,51.875 2482.9531,52.1563 2482.9531,52.4375 C2482.9531,52.7188 2483.0938,52.9688 2483.3125,53.1406 C2483.4844,53.25 2483.6563,53.2813 2484.0938,53.2813 L2485.1719,53.2813 L2482.5313,59.7969 C2482.1094,59.7969 2481.9531,59.8125 2481.7969,59.9219 C2481.5469,60.0781 2481.3906,60.3594 2481.3906,60.6563 C2481.3906,61.2188 2481.7656,61.5 2482.5156,61.5 L2484.7813,61.5 C2485.1406,61.5 2485.3594,61.4688 2485.4844,61.375 C2485.75,61.2344 2485.8906,60.9375 2485.8906,60.6563 C2485.8906,60.375 2485.7656,60.125 2485.5469,59.9531 C2485.375,59.8281 2485.2344,59.7969 2484.7813,59.7969 L2484.3906,59.7969 L2484.7813,58.8125 L2488.8281,58.8125 Z M2488.125,57.1094 L2485.4531,57.1094 L2486.7969,53.8438 L2488.125,57.1094 Z " fill="#000000"/><text fill="#000000" font-family="sans-serif" font-size="12" font-style="italic" lengthAdjust="spacingAndGlyphs" textLength="78" x="2507.25" y="61.1543">AbstractJobb</text><line style="stroke:#A80036;stroke-width:1.5;" x1="2336.5" x2="2723.5" y1="73" y2="73"/><polygon fill="none" points="2346.5,79,2350.5,83,2346.5,87,2342.5,83" style="stroke:#B38D22;stroke-width:1.0;"/><text fill="#000000" font-family="sans-serif" font-size="11" lengthAdjust="spacingAndGlyphs" textLength="162" x="2355.5" y="87.2104">Timer: System.Timers.Timer</text><rect fill="none" height="6" style="stroke:#C82930;stroke-width:1.0;" width="6" x="2343.5" y="93.8047"/><text fill="#000000" font-family="sans-serif" font-size="11" lengthAdjust="spacingAndGlyphs" textLength="214" x="2355.5" y="100.0151">_parameters: AbstractJobbParameters</text><line style="stroke:#A80036;stroke-width:1.5;" x1="2336.5" x2="2723.5" y1="106.6094" y2="106.6094"/><polygon fill="#FFFF44" points="2346.5,112.6094,2350.5,116.6094,2346.5,120.6094,2342.5,116.6094" style="stroke:#B38D22;stroke-width:1.0;"/><text fill="#000000" font-family="sans-serif" font-size="11" lengthAdjust="spacingAndGlyphs" textLength="363" x="2355.5" y="120.8198">AbstractJobb(parameters: AbstractJobbParameters): AbstractJobb</text><ellipse cx="2346.5" cy="130.4141" fill="#84BE84" rx="3" ry="3" style="stroke:#038048;stroke-width:1.0;"/><text fill="#000000" font-family="sans-serif" font-size="11" font-style="italic" lengthAdjust="spacingAndGlyphs" textLength="152" x="2355.5" y="133.6245">Execute(): JobbReturnCode</text><ellipse cx="2346.5" cy="143.2188" fill="#84BE84" rx="3" ry="3" style="stroke:#038048;stroke-width:1.0;"/><text fill="#000000" font-family="sans-serif" font-size="11" lengthAdjust="spacingAndGlyphs" textLength="92" x="2355.5" y="146.4292">SetTimer(): void</text><polygon fill="#FFFF44" points="2346.5,151.0234,2350.5,155.0234,2346.5,159.0234,2342.5,155.0234" style="stroke:#B38D22;stroke-width:1.0;"/><text fill="#000000" font-family="sans-serif" font-size="11" lengthAdjust="spacingAndGlyphs" textLength="208" x="2355.5" y="159.2339">AreParametersValid(obj object): bool</text><polygon fill="#FFFF44" points="2346.5,163.8281,2350.5,167.8281,2346.5,171.8281,2342.5,167.8281" style="stroke:#B38D22;stroke-width:1.0;"/><text fill="#000000" font-family="sans-serif" font-size="11" lengthAdjust="spacingAndGlyphs" textLength="291" x="2355.5" y="172.0386">TimerElapsed(source: object, e: ElapsedEventArgs)</text><!--MD5=[c680266cf9e454ca06c2d1bb8b683e6b]
class Schedule--><rect codeLine="56" fill="#FEFECE" filter="url(#f1ttvc8gvhq3oo)" height="124.8281" id="Schedule" style="stroke:#A80036;stroke-width:1.5;" width="276" x="2020" y="482"/><ellipse cx="2125.75" cy="498" fill="#ADD1B2" rx="11" ry="11" style="stroke:#A80036;stroke-width:1.0;"/><path d="M2128.0938,493.6719 C2127.1563,493.2344 2126.5625,493.0938 2125.6875,493.0938 C2123.0625,493.0938 2121.0625,495.1719 2121.0625,497.8906 L2121.0625,499.0156 C2121.0625,501.5938 2123.1719,503.4844 2126.0625,503.4844 C2127.2813,503.4844 2128.4375,503.1875 2129.1875,502.6406 C2129.7656,502.2344 2130.0938,501.7813 2130.0938,501.3906 C2130.0938,500.9375 2129.7031,500.5469 2129.2344,500.5469 C2129.0156,500.5469 2128.8125,500.625 2128.625,500.8125 C2128.1719,501.2969 2128.1719,501.2969 2127.9844,501.3906 C2127.5625,501.6563 2126.875,501.7813 2126.1094,501.7813 C2124.0625,501.7813 2122.7656,500.6875 2122.7656,498.9844 L2122.7656,497.8906 C2122.7656,496.1094 2124.0156,494.7969 2125.75,494.7969 C2126.3281,494.7969 2126.9375,494.9531 2127.4063,495.2031 C2127.8906,495.4844 2128.0625,495.7031 2128.1563,496.1094 C2128.2188,496.5156 2128.25,496.6406 2128.3906,496.7656 C2128.5313,496.9063 2128.7656,497.0156 2128.9844,497.0156 C2129.25,497.0156 2129.5156,496.875 2129.6875,496.6563 C2129.7969,496.5 2129.8281,496.3125 2129.8281,495.8906 L2129.8281,494.4688 C2129.8281,494.0313 2129.8125,493.9063 2129.7188,493.75 C2129.5625,493.4844 2129.2813,493.3438 2128.9844,493.3438 C2128.6875,493.3438 2128.4844,493.4375 2128.2656,493.75 L2128.0938,493.6719 Z " fill="#000000"/><text fill="#000000" font-family="sans-serif" font-size="12" lengthAdjust="spacingAndGlyphs" textLength="56" x="2146.25" y="502.1543">Schedule</text><line style="stroke:#A80036;stroke-width:1.5;" x1="2021" x2="2295" y1="514" y2="514"/><ellipse cx="2031" cy="525" fill="none" rx="3" ry="3" style="stroke:#038048;stroke-width:1.0;"/><text fill="#000000" font-family="sans-serif" font-size="11" lengthAdjust="spacingAndGlyphs" textLength="77" x="2040" y="528.2104">Period: Period</text><ellipse cx="2031" cy="537.8047" fill="none" rx="3" ry="3" style="stroke:#038048;stroke-width:1.0;"/><text fill="#000000" font-family="sans-serif" font-size="11" lengthAdjust="spacingAndGlyphs" textLength="43" x="2040" y="541.0151">Unit: int</text><rect fill="none" height="6" style="stroke:#C82930;stroke-width:1.0;" width="6" x="2028" y="547.6094"/><text fill="#000000" font-family="sans-serif" font-size="11" lengthAdjust="spacingAndGlyphs" textLength="48" x="2040" y="553.8198">_unit: int</text><rect fill="none" height="6" style="stroke:#C82930;stroke-width:1.0;" width="6" x="2028" y="560.4141"/><text fill="#000000" font-family="sans-serif" font-size="11" lengthAdjust="spacingAndGlyphs" text-decoration="underline" textLength="166" x="2040" y="566.6245">GetExceptionMessage: string</text><line style="stroke:#A80036;stroke-width:1.5;" x1="2021" x2="2295" y1="573.2188" y2="573.2188"/><ellipse cx="2031" cy="584.2188" fill="#84BE84" rx="3" ry="3" style="stroke:#038048;stroke-width:1.0;"/><text fill="#000000" font-family="sans-serif" font-size="11" lengthAdjust="spacingAndGlyphs" textLength="123" x="2040" y="587.4292">Schedule(): Schedule</text><ellipse cx="2031" cy="597.0234" fill="#84BE84" rx="3" ry="3" style="stroke:#038048;stroke-width:1.0;"/><text fill="#000000" font-family="sans-serif" font-size="11" lengthAdjust="spacingAndGlyphs" textLength="250" x="2040" y="600.2339">Schedule(period: Period, unit: int): Schedule</text><!--MD5=[ba26fc5f0e183a4ee1685004100b63bd]
class CopyFileJobb--><rect codeLine="25" fill="#FEFECE" filter="url(#f1ttvc8gvhq3oo)" height="99.2188" id="CopyFileJobb" style="stroke:#A80036;stroke-width:1.5;" width="398" x="2331" y="495"/><ellipse cx="2485.75" cy="511" fill="#ADD1B2" rx="11" ry="11" style="stroke:#A80036;stroke-width:1.0;"/><path d="M2488.0938,506.6719 C2487.1563,506.2344 2486.5625,506.0938 2485.6875,506.0938 C2483.0625,506.0938 2481.0625,508.1719 2481.0625,510.8906 L2481.0625,512.0156 C2481.0625,514.5938 2483.1719,516.4844 2486.0625,516.4844 C2487.2813,516.4844 2488.4375,516.1875 2489.1875,515.6406 C2489.7656,515.2344 2490.0938,514.7813 2490.0938,514.3906 C2490.0938,513.9375 2489.7031,513.5469 2489.2344,513.5469 C2489.0156,513.5469 2488.8125,513.625 2488.625,513.8125 C2488.1719,514.2969 2488.1719,514.2969 2487.9844,514.3906 C2487.5625,514.6563 2486.875,514.7813 2486.1094,514.7813 C2484.0625,514.7813 2482.7656,513.6875 2482.7656,511.9844 L2482.7656,510.8906 C2482.7656,509.1094 2484.0156,507.7969 2485.75,507.7969 C2486.3281,507.7969 2486.9375,507.9531 2487.4063,508.2031 C2487.8906,508.4844 2488.0625,508.7031 2488.1563,509.1094 C2488.2188,509.5156 2488.25,509.6406 2488.3906,509.7656 C2488.5313,509.9063 2488.7656,510.0156 2488.9844,510.0156 C2489.25,510.0156 2489.5156,509.875 2489.6875,509.6563 C2489.7969,509.5 2489.8281,509.3125 2489.8281,508.8906 L2489.8281,507.4688 C2489.8281,507.0313 2489.8125,506.9063 2489.7188,506.75 C2489.5625,506.4844 2489.2813,506.3438 2488.9844,506.3438 C2488.6875,506.3438 2488.4844,506.4375 2488.2656,506.75 L2488.0938,506.6719 Z " fill="#000000"/><text fill="#000000" font-family="sans-serif" font-size="12" lengthAdjust="spacingAndGlyphs" textLength="80" x="2506.25" y="515.1543">CopyFileJobb</text><line style="stroke:#A80036;stroke-width:1.5;" x1="2332" x2="2728" y1="527" y2="527"/><ellipse cx="2342" cy="538" fill="none" rx="3" ry="3" style="stroke:#038048;stroke-width:1.0;"/><text fill="#000000" font-family="sans-serif" font-size="11" lengthAdjust="spacingAndGlyphs" textLength="210" x="2351" y="541.2104">Parameters: CopyFileJobbParameters</text><line style="stroke:#A80036;stroke-width:1.5;" x1="2332" x2="2728" y1="547.8047" y2="547.8047"/><ellipse cx="2342" cy="558.8047" fill="#84BE84" rx="3" ry="3" style="stroke:#038048;stroke-width:1.0;"/><text fill="#000000" font-family="sans-serif" font-size="11" lengthAdjust="spacingAndGlyphs" textLength="372" x="2351" y="562.0151">CopyFileJobb(parameters: CopyFileJobbParameters): CopyFileJobb</text><ellipse cx="2342" cy="571.6094" fill="#84BE84" rx="3" ry="3" style="stroke:#038048;stroke-width:1.0;"/><text fill="#000000" font-family="sans-serif" font-size="11" lengthAdjust="spacingAndGlyphs" textLength="85" x="2351" y="574.8198">Dispose(): void</text><ellipse cx="2342" cy="584.4141" fill="#84BE84" rx="3" ry="3" style="stroke:#038048;stroke-width:1.0;"/><text fill="#000000" font-family="sans-serif" font-size="11" lengthAdjust="spacingAndGlyphs" textLength="153" x="2351" y="587.6245">Execute(): JobbReturnCode</text><!--MD5=[3a690ed6c79c749f24be4834cf200d30]
class CopyFileJobbParameters--><rect codeLine="33" fill="#FEFECE" filter="url(#f1ttvc8gvhq3oo)" height="99.2188" id="CopyFileJobbParameters" style="stroke:#A80036;stroke-width:1.5;" width="180" x="2331" y="667"/><ellipse cx="2346" cy="683" fill="#ADD1B2" rx="11" ry="11" style="stroke:#A80036;stroke-width:1.0;"/><path d="M2348.3438,678.6719 C2347.4063,678.2344 2346.8125,678.0938 2345.9375,678.0938 C2343.3125,678.0938 2341.3125,680.1719 2341.3125,682.8906 L2341.3125,684.0156 C2341.3125,686.5938 2343.4219,688.4844 2346.3125,688.4844 C2347.5313,688.4844 2348.6875,688.1875 2349.4375,687.6406 C2350.0156,687.2344 2350.3438,686.7813 2350.3438,686.3906 C2350.3438,685.9375 2349.9531,685.5469 2349.4844,685.5469 C2349.2656,685.5469 2349.0625,685.625 2348.875,685.8125 C2348.4219,686.2969 2348.4219,686.2969 2348.2344,686.3906 C2347.8125,686.6563 2347.125,686.7813 2346.3594,686.7813 C2344.3125,686.7813 2343.0156,685.6875 2343.0156,683.9844 L2343.0156,682.8906 C2343.0156,681.1094 2344.2656,679.7969 2346,679.7969 C2346.5781,679.7969 2347.1875,679.9531 2347.6563,680.2031 C2348.1406,680.4844 2348.3125,680.7031 2348.4063,681.1094 C2348.4688,681.5156 2348.5,681.6406 2348.6406,681.7656 C2348.7813,681.9063 2349.0156,682.0156 2349.2344,682.0156 C2349.5,682.0156 2349.7656,681.875 2349.9375,681.6563 C2350.0469,681.5 2350.0781,681.3125 2350.0781,680.8906 L2350.0781,679.4688 C2350.0781,679.0313 2350.0625,678.9063 2349.9688,678.75 C2349.8125,678.4844 2349.5313,678.3438 2349.2344,678.3438 C2348.9375,678.3438 2348.7344,678.4375 2348.5156,678.75 L2348.3438,678.6719 Z " fill="#000000"/><text fill="#000000" font-family="sans-serif" font-size="12" lengthAdjust="spacingAndGlyphs" textLength="148" x="2360" y="687.1543">CopyFileJobbParameters</text><line style="stroke:#A80036;stroke-width:1.5;" x1="2332" x2="2510" y1="699" y2="699"/><ellipse cx="2342" cy="710" fill="none" rx="3" ry="3" style="stroke:#038048;stroke-width:1.0;"/><text fill="#000000" font-family="sans-serif" font-size="11" lengthAdjust="spacingAndGlyphs" textLength="92" x="2351" y="713.2104">FileName: string</text><ellipse cx="2342" cy="722.8047" fill="none" rx="3" ry="3" style="stroke:#038048;stroke-width:1.0;"/><text fill="#000000" font-family="sans-serif" font-size="11" lengthAdjust="spacingAndGlyphs" textLength="130" x="2351" y="726.0151">SourceDirectory: string</text><ellipse cx="2342" cy="735.6094" fill="none" rx="3" ry="3" style="stroke:#038048;stroke-width:1.0;"/><text fill="#000000" font-family="sans-serif" font-size="11" lengthAdjust="spacingAndGlyphs" textLength="127" x="2351" y="738.8198">TargetDirectory: string</text><line style="stroke:#A80036;stroke-width:1.5;" x1="2332" x2="2510" y1="745.4141" y2="745.4141"/><ellipse cx="2342" cy="756.4141" fill="#84BE84" rx="3" ry="3" style="stroke:#038048;stroke-width:1.0;"/><text fill="#000000" font-family="sans-serif" font-size="11" lengthAdjust="spacingAndGlyphs" textLength="85" x="2351" y="759.6245">Dispose(): void</text><!--MD5=[3001093e34247fe5ffe9ff378d787943]
class EmptyDirectoryJobb--><rect codeLine="41" fill="#FEFECE" filter="url(#f1ttvc8gvhq3oo)" height="99.2188" id="EmptyDirectoryJobb" style="stroke:#A80036;stroke-width:1.5;" width="515" x="2764.5" y="495"/><ellipse cx="2957.25" cy="511" fill="#ADD1B2" rx="11" ry="11" style="stroke:#A80036;stroke-width:1.0;"/><path d="M2959.5938,506.6719 C2958.6563,506.2344 2958.0625,506.0938 2957.1875,506.0938 C2954.5625,506.0938 2952.5625,508.1719 2952.5625,510.8906 L2952.5625,512.0156 C2952.5625,514.5938 2954.6719,516.4844 2957.5625,516.4844 C2958.7813,516.4844 2959.9375,516.1875 2960.6875,515.6406 C2961.2656,515.2344 2961.5938,514.7813 2961.5938,514.3906 C2961.5938,513.9375 2961.2031,513.5469 2960.7344,513.5469 C2960.5156,513.5469 2960.3125,513.625 2960.125,513.8125 C2959.6719,514.2969 2959.6719,514.2969 2959.4844,514.3906 C2959.0625,514.6563 2958.375,514.7813 2957.6094,514.7813 C2955.5625,514.7813 2954.2656,513.6875 2954.2656,511.9844 L2954.2656,510.8906 C2954.2656,509.1094 2955.5156,507.7969 2957.25,507.7969 C2957.8281,507.7969 2958.4375,507.9531 2958.9063,508.2031 C2959.3906,508.4844 2959.5625,508.7031 2959.6563,509.1094 C2959.7188,509.5156 2959.75,509.6406 2959.8906,509.7656 C2960.0313,509.9063 2960.2656,510.0156 2960.4844,510.0156 C2960.75,510.0156 2961.0156,509.875 2961.1875,509.6563 C2961.2969,509.5 2961.3281,509.3125 2961.3281,508.8906 L2961.3281,507.4688 C2961.3281,507.0313 2961.3125,506.9063 2961.2188,506.75 C2961.0625,506.4844 2960.7813,506.3438 2960.4844,506.3438 C2960.1875,506.3438 2959.9844,506.4375 2959.7656,506.75 L2959.5938,506.6719 Z " fill="#000000"/><text fill="#000000" font-family="sans-serif" font-size="12" lengthAdjust="spacingAndGlyphs" textLength="121" x="2977.75" y="515.1543">EmptyDirectoryJobb</text><line style="stroke:#A80036;stroke-width:1.5;" x1="2765.5" x2="3278.5" y1="527" y2="527"/><ellipse cx="2775.5" cy="538" fill="none" rx="3" ry="3" style="stroke:#038048;stroke-width:1.0;"/><text fill="#000000" font-family="sans-serif" font-size="11" lengthAdjust="spacingAndGlyphs" textLength="249" x="2784.5" y="541.2104">Parameters: EmptyDirectoryJobbParameters</text><line style="stroke:#A80036;stroke-width:1.5;" x1="2765.5" x2="3278.5" y1="547.8047" y2="547.8047"/><ellipse cx="2775.5" cy="558.8047" fill="#84BE84" rx="3" ry="3" style="stroke:#038048;stroke-width:1.0;"/><text fill="#000000" font-family="sans-serif" font-size="11" lengthAdjust="spacingAndGlyphs" textLength="489" x="2784.5" y="562.0151">EmptyDirectoryJobb(parameters: EmptyDirectoryJobbParameters): EmptyDirectoryJobb</text><ellipse cx="2775.5" cy="571.6094" fill="#84BE84" rx="3" ry="3" style="stroke:#038048;stroke-width:1.0;"/><text fill="#000000" font-family="sans-serif" font-size="11" lengthAdjust="spacingAndGlyphs" textLength="85" x="2784.5" y="574.8198">Dispose(): void</text><ellipse cx="2775.5" cy="584.4141" fill="#84BE84" rx="3" ry="3" style="stroke:#038048;stroke-width:1.0;"/><text fill="#000000" font-family="sans-serif" font-size="11" lengthAdjust="spacingAndGlyphs" textLength="153" x="2784.5" y="587.6245">Execute(): JobbReturnCode</text><!--MD5=[1d73cc7ebde6cd04b2ce82035238336e]
class EmptyDirectoryJobbParameters--><rect codeLine="49" fill="#FEFECE" filter="url(#f1ttvc8gvhq3oo)" height="73.6094" id="EmptyDirectoryJobbParameters" style="stroke:#A80036;stroke-width:1.5;" width="221" x="2546.5" y="679.5"/><ellipse cx="2561.5" cy="695.5" fill="#ADD1B2" rx="11" ry="11" style="stroke:#A80036;stroke-width:1.0;"/><path d="M2563.8438,691.1719 C2562.9063,690.7344 2562.3125,690.5938 2561.4375,690.5938 C2558.8125,690.5938 2556.8125,692.6719 2556.8125,695.3906 L2556.8125,696.5156 C2556.8125,699.0938 2558.9219,700.9844 2561.8125,700.9844 C2563.0313,700.9844 2564.1875,700.6875 2564.9375,700.1406 C2565.5156,699.7344 2565.8438,699.2813 2565.8438,698.8906 C2565.8438,698.4375 2565.4531,698.0469 2564.9844,698.0469 C2564.7656,698.0469 2564.5625,698.125 2564.375,698.3125 C2563.9219,698.7969 2563.9219,698.7969 2563.7344,698.8906 C2563.3125,699.1563 2562.625,699.2813 2561.8594,699.2813 C2559.8125,699.2813 2558.5156,698.1875 2558.5156,696.4844 L2558.5156,695.3906 C2558.5156,693.6094 2559.7656,692.2969 2561.5,692.2969 C2562.0781,692.2969 2562.6875,692.4531 2563.1563,692.7031 C2563.6406,692.9844 2563.8125,693.2031 2563.9063,693.6094 C2563.9688,694.0156 2564,694.1406 2564.1406,694.2656 C2564.2813,694.4063 2564.5156,694.5156 2564.7344,694.5156 C2565,694.5156 2565.2656,694.375 2565.4375,694.1563 C2565.5469,694 2565.5781,693.8125 2565.5781,693.3906 L2565.5781,691.9688 C2565.5781,691.5313 2565.5625,691.4063 2565.4688,691.25 C2565.3125,690.9844 2565.0313,690.8438 2564.7344,690.8438 C2564.4375,690.8438 2564.2344,690.9375 2564.0156,691.25 L2563.8438,691.1719 Z " fill="#000000"/><text fill="#000000" font-family="sans-serif" font-size="12" lengthAdjust="spacingAndGlyphs" textLength="189" x="2575.5" y="699.6543">EmptyDirectoryJobbParameters</text><line style="stroke:#A80036;stroke-width:1.5;" x1="2547.5" x2="2766.5" y1="711.5" y2="711.5"/><ellipse cx="2557.5" cy="722.5" fill="none" rx="3" ry="3" style="stroke:#038048;stroke-width:1.0;"/><text fill="#000000" font-family="sans-serif" font-size="11" lengthAdjust="spacingAndGlyphs" textLength="127" x="2566.5" y="725.7104">TargetDirectory: string</text><line style="stroke:#A80036;stroke-width:1.5;" x1="2547.5" x2="2766.5" y1="732.3047" y2="732.3047"/><ellipse cx="2557.5" cy="743.3047" fill="#84BE84" rx="3" ry="3" style="stroke:#038048;stroke-width:1.0;"/><text fill="#000000" font-family="sans-serif" font-size="11" lengthAdjust="spacingAndGlyphs" textLength="85" x="2566.5" y="746.5151">Dispose(): void</text><!--MD5=[6c9b1388350efffbbcd0496cc138c8bd]
class JobbReturnCode--><rect codeLine="70" fill="#FEFECE" filter="url(#f1ttvc8gvhq3oo)" height="86.4141" id="JobbReturnCode" style="stroke:#A80036;stroke-width:1.5;" width="130" x="32" y="67"/><ellipse cx="47" cy="83" fill="#EB937F" rx="11" ry="11" style="stroke:#A80036;stroke-width:1.0;"/><path d="M45.7969,83.875 L47.25,83.875 L47.25,83.9844 C47.25,84.3906 47.2813,84.5469 47.3594,84.7031 C47.5156,84.9531 47.7969,85.1094 48.0938,85.1094 C48.3438,85.1094 48.6094,84.9688 48.7656,84.75 C48.8906,84.5938 48.9219,84.4375 48.9219,83.9844 L48.9219,82.0625 C48.9219,81.9063 48.9219,81.8594 48.9063,81.7031 C48.8438,81.2344 48.5313,80.9219 48.0781,80.9219 C47.8281,80.9219 47.5625,81.0625 47.3906,81.2813 C47.2813,81.4531 47.25,81.6094 47.25,82.0625 L47.25,82.1875 L45.7969,82.1875 L45.7969,79.7813 L49.7813,79.7813 L49.7813,80.6406 C49.7813,81.0469 49.8125,81.2188 49.8906,81.375 C50.0625,81.625 50.3438,81.7813 50.625,81.7813 C50.8906,81.7813 51.1563,81.6406 51.3281,81.4219 C51.4375,81.25 51.4688,81.1094 51.4688,80.6406 L51.4688,78.0938 L43.8438,78.0938 C43.4063,78.0938 43.2813,78.1094 43.125,78.2031 C42.875,78.3594 42.7188,78.6563 42.7188,78.9375 C42.7188,79.2188 42.8594,79.4688 43.0781,79.6406 C43.2344,79.75 43.4219,79.7813 43.8438,79.7813 L44.0938,79.7813 L44.0938,86.2969 L43.8438,86.2969 C43.4375,86.2969 43.2813,86.3125 43.125,86.4219 C42.875,86.5938 42.7188,86.8594 42.7188,87.1563 C42.7188,87.4219 42.8594,87.6719 43.0781,87.8281 C43.2188,87.9531 43.4531,88 43.8438,88 L51.8438,88 L51.8438,85.4219 C51.8438,84.9844 51.8125,84.8438 51.7344,84.6875 C51.5625,84.4375 51.2813,84.2813 51,84.2813 C50.7344,84.2813 50.4688,84.3906 50.2969,84.6406 C50.1875,84.7969 50.1563,84.9375 50.1563,85.4219 L50.1563,86.2969 L45.7969,86.2969 L45.7969,83.875 Z " fill="#000000"/><text fill="#000000" font-family="sans-serif" font-size="12" lengthAdjust="spacingAndGlyphs" textLength="98" x="61" y="87.1543">JobbReturnCode</text><line style="stroke:#A80036;stroke-width:1.5;" x1="33" x2="161" y1="99" y2="99"/><text fill="#000000" font-family="sans-serif" font-size="11" lengthAdjust="spacingAndGlyphs" textLength="47" x="38" y="113.2104">Success</text><text fill="#000000" font-family="sans-serif" font-size="11" lengthAdjust="spacingAndGlyphs" textLength="26" x="38" y="126.0151">Error</text><text fill="#000000" font-family="sans-serif" font-size="11" lengthAdjust="spacingAndGlyphs" textLength="42" x="38" y="138.8198">Waiting</text><line style="stroke:#A80036;stroke-width:1.5;" x1="33" x2="161" y1="145.4141" y2="145.4141"/><!--MD5=[df9fa144e65ed85cd6a3209221107b8f]
class MillisecondsCalculator--><rect codeLine="77" fill="#FEFECE" filter="url(#f1ttvc8gvhq3oo)" height="60.8047" id="MillisecondsCalculator" style="stroke:#A80036;stroke-width:1.5;" width="274" x="197" y="79.5"/><ellipse cx="263.25" cy="95.5" fill="#ADD1B2" rx="11" ry="11" style="stroke:#A80036;stroke-width:1.0;"/><path d="M265.5938,91.1719 C264.6563,90.7344 264.0625,90.5938 263.1875,90.5938 C260.5625,90.5938 258.5625,92.6719 258.5625,95.3906 L258.5625,96.5156 C258.5625,99.0938 260.6719,100.9844 263.5625,100.9844 C264.7813,100.9844 265.9375,100.6875 266.6875,100.1406 C267.2656,99.7344 267.5938,99.2813 267.5938,98.8906 C267.5938,98.4375 267.2031,98.0469 266.7344,98.0469 C266.5156,98.0469 266.3125,98.125 266.125,98.3125 C265.6719,98.7969 265.6719,98.7969 265.4844,98.8906 C265.0625,99.1563 264.375,99.2813 263.6094,99.2813 C261.5625,99.2813 260.2656,98.1875 260.2656,96.4844 L260.2656,95.3906 C260.2656,93.6094 261.5156,92.2969 263.25,92.2969 C263.8281,92.2969 264.4375,92.4531 264.9063,92.7031 C265.3906,92.9844 265.5625,93.2031 265.6563,93.6094 C265.7188,94.0156 265.75,94.1406 265.8906,94.2656 C266.0313,94.4063 266.2656,94.5156 266.4844,94.5156 C266.75,94.5156 267.0156,94.375 267.1875,94.1563 C267.2969,94 267.3281,93.8125 267.3281,93.3906 L267.3281,91.9688 C267.3281,91.5313 267.3125,91.4063 267.2188,91.25 C267.0625,90.9844 266.7813,90.8438 266.4844,90.8438 C266.1875,90.8438 265.9844,90.9375 265.7656,91.25 L265.5938,91.1719 Z " fill="#000000"/><text fill="#000000" font-family="sans-serif" font-size="12" lengthAdjust="spacingAndGlyphs" textLength="133" x="283.75" y="99.6543">MillisecondsCalculator</text><line style="stroke:#A80036;stroke-width:1.5;" x1="198" x2="470" y1="111.5" y2="111.5"/><line style="stroke:#A80036;stroke-width:1.5;" x1="198" x2="470" y1="119.5" y2="119.5"/><ellipse cx="208" cy="130.5" fill="#84BE84" rx="3" ry="3" style="stroke:#038048;stroke-width:1.0;"/><text fill="#000000" font-family="sans-serif" font-size="11" lengthAdjust="spacingAndGlyphs" text-decoration="underline" textLength="248" x="217" y="133.7104">GetMilliseconds(schedule: Schedule): ulong</text><!--MD5=[2555a5a46195b40631e16698a2ba5d47]
class Period--><rect codeLine="82" fill="#FEFECE" filter="url(#f1ttvc8gvhq3oo)" height="137.6328" id="Period" style="stroke:#A80036;stroke-width:1.5;" width="70" x="62" y="239"/><ellipse cx="77" cy="255" fill="#EB937F" rx="11" ry="11" style="stroke:#A80036;stroke-width:1.0;"/><path d="M75.7969,255.875 L77.25,255.875 L77.25,255.9844 C77.25,256.3906 77.2813,256.5469 77.3594,256.7031 C77.5156,256.9531 77.7969,257.1094 78.0938,257.1094 C78.3438,257.1094 78.6094,256.9688 78.7656,256.75 C78.8906,256.5938 78.9219,256.4375 78.9219,255.9844 L78.9219,254.0625 C78.9219,253.9063 78.9219,253.8594 78.9063,253.7031 C78.8438,253.2344 78.5313,252.9219 78.0781,252.9219 C77.8281,252.9219 77.5625,253.0625 77.3906,253.2813 C77.2813,253.4531 77.25,253.6094 77.25,254.0625 L77.25,254.1875 L75.7969,254.1875 L75.7969,251.7813 L79.7813,251.7813 L79.7813,252.6406 C79.7813,253.0469 79.8125,253.2188 79.8906,253.375 C80.0625,253.625 80.3438,253.7813 80.625,253.7813 C80.8906,253.7813 81.1563,253.6406 81.3281,253.4219 C81.4375,253.25 81.4688,253.1094 81.4688,252.6406 L81.4688,250.0938 L73.8438,250.0938 C73.4063,250.0938 73.2813,250.1094 73.125,250.2031 C72.875,250.3594 72.7188,250.6563 72.7188,250.9375 C72.7188,251.2188 72.8594,251.4688 73.0781,251.6406 C73.2344,251.75 73.4219,251.7813 73.8438,251.7813 L74.0938,251.7813 L74.0938,258.2969 L73.8438,258.2969 C73.4375,258.2969 73.2813,258.3125 73.125,258.4219 C72.875,258.5938 72.7188,258.8594 72.7188,259.1563 C72.7188,259.4219 72.8594,259.6719 73.0781,259.8281 C73.2188,259.9531 73.4531,260 73.8438,260 L81.8438,260 L81.8438,257.4219 C81.8438,256.9844 81.8125,256.8438 81.7344,256.6875 C81.5625,256.4375 81.2813,256.2813 81,256.2813 C80.7344,256.2813 80.4688,256.3906 80.2969,256.6406 C80.1875,256.7969 80.1563,256.9375 80.1563,257.4219 L80.1563,258.2969 L75.7969,258.2969 L75.7969,255.875 Z " fill="#000000"/><text fill="#000000" font-family="sans-serif" font-size="12" lengthAdjust="spacingAndGlyphs" textLength="38" x="91" y="259.1543">Period</text><line style="stroke:#A80036;stroke-width:1.5;" x1="63" x2="131" y1="271" y2="271"/><text fill="#000000" font-family="sans-serif" font-size="11" lengthAdjust="spacingAndGlyphs" textLength="49" x="68" y="285.2104">Seconds</text><text fill="#000000" font-family="sans-serif" font-size="11" lengthAdjust="spacingAndGlyphs" textLength="44" x="68" y="298.0151">Minutes</text><text fill="#000000" font-family="sans-serif" font-size="11" lengthAdjust="spacingAndGlyphs" textLength="32" x="68" y="310.8198">Hours</text><text fill="#000000" font-family="sans-serif" font-size="11" lengthAdjust="spacingAndGlyphs" textLength="29" x="68" y="323.6245">Days</text><text fill="#000000" font-family="sans-serif" font-size="11" lengthAdjust="spacingAndGlyphs" textLength="39" x="68" y="336.4292">Weeks</text><text fill="#000000" font-family="sans-serif" font-size="11" lengthAdjust="spacingAndGlyphs" textLength="40" x="68" y="349.2339">Months</text><text fill="#000000" font-family="sans-serif" font-size="11" lengthAdjust="spacingAndGlyphs" textLength="32" x="68" y="362.0386">Years</text><line style="stroke:#A80036;stroke-width:1.5;" x1="63" x2="131" y1="368.6328" y2="368.6328"/><!--MD5=[1679a4e0ae9d2cbfe0a9c4b71515cc3b]
class PeriodValueOutOfBoundsException--><rect codeLine="96" fill="#FEFECE" filter="url(#f1ttvc8gvhq3oo)" height="105.1563" id="PeriodValueOutOfBoundsException" style="stroke:#A80036;stroke-width:1.5;" width="642" x="1248" y="255.5"/><ellipse cx="1459.75" cy="274.4688" fill="#ADD1B2" rx="11" ry="11" style="stroke:#A80036;stroke-width:1.0;"/><path d="M1462.0938,270.1406 C1461.1563,269.7031 1460.5625,269.5625 1459.6875,269.5625 C1457.0625,269.5625 1455.0625,271.6406 1455.0625,274.3594 L1455.0625,275.4844 C1455.0625,278.0625 1457.1719,279.9531 1460.0625,279.9531 C1461.2813,279.9531 1462.4375,279.6563 1463.1875,279.1094 C1463.7656,278.7031 1464.0938,278.25 1464.0938,277.8594 C1464.0938,277.4063 1463.7031,277.0156 1463.2344,277.0156 C1463.0156,277.0156 1462.8125,277.0938 1462.625,277.2813 C1462.1719,277.7656 1462.1719,277.7656 1461.9844,277.8594 C1461.5625,278.125 1460.875,278.25 1460.1094,278.25 C1458.0625,278.25 1456.7656,277.1563 1456.7656,275.4531 L1456.7656,274.3594 C1456.7656,272.5781 1458.0156,271.2656 1459.75,271.2656 C1460.3281,271.2656 1460.9375,271.4219 1461.4063,271.6719 C1461.8906,271.9531 1462.0625,272.1719 1462.1563,272.5781 C1462.2188,272.9844 1462.25,273.1094 1462.3906,273.2344 C1462.5313,273.375 1462.7656,273.4844 1462.9844,273.4844 C1463.25,273.4844 1463.5156,273.3438 1463.6875,273.125 C1463.7969,272.9688 1463.8281,272.7813 1463.8281,272.3594 L1463.8281,270.9375 C1463.8281,270.5 1463.8125,270.375 1463.7188,270.2188 C1463.5625,269.9531 1463.2813,269.8125 1462.9844,269.8125 C1462.6875,269.8125 1462.4844,269.9063 1462.2656,270.2188 L1462.0938,270.1406 Z " fill="#000000"/><text fill="#000000" font-family="sans-serif" font-size="12" font-style="italic" lengthAdjust="spacingAndGlyphs" textLength="81" x="1544.75" y="271.6387">«Serializable»</text><text fill="#000000" font-family="sans-serif" font-size="12" lengthAdjust="spacingAndGlyphs" textLength="210" x="1480.25" y="285.6074">PeriodValueOutOfBoundsException</text><line style="stroke:#A80036;stroke-width:1.5;" x1="1249" x2="1889" y1="293.4375" y2="293.4375"/><line style="stroke:#A80036;stroke-width:1.5;" x1="1249" x2="1889" y1="301.4375" y2="301.4375"/><ellipse cx="1259" cy="312.4375" fill="#84BE84" rx="3" ry="3" style="stroke:#038048;stroke-width:1.0;"/><text fill="#000000" font-family="sans-serif" font-size="11" lengthAdjust="spacingAndGlyphs" textLength="335" x="1268" y="315.6479">PeriodOutOfBoundException(): PeriodOutOfBoundException</text><ellipse cx="1259" cy="325.2422" fill="#84BE84" rx="3" ry="3" style="stroke:#038048;stroke-width:1.0;"/><text fill="#000000" font-family="sans-serif" font-size="11" lengthAdjust="spacingAndGlyphs" textLength="426" x="1268" y="328.4526">PeriodOutOfBoundException(message: string): PeriodOutOfBoundException</text><ellipse cx="1259" cy="338.0469" fill="#84BE84" rx="3" ry="3" style="stroke:#038048;stroke-width:1.0;"/><text fill="#000000" font-family="sans-serif" font-size="11" lengthAdjust="spacingAndGlyphs" textLength="581" x="1268" y="341.2573">PeriodOutOfBoundException(message: string, innerException: Exception): PeriodOutOfBoundException</text><polygon fill="#FFFF44" points="1259,345.8516,1263,349.8516,1259,353.8516,1255,349.8516" style="stroke:#B38D22;stroke-width:1.0;"/><text fill="#000000" font-family="sans-serif" font-size="11" lengthAdjust="spacingAndGlyphs" textLength="616" x="1268" y="354.062">PeriodOutOfBoundException(info: SerializationInfo, context: StreamingContext): PeriodOutOfBoundException</text><!--MD5=[804ef427991e8949f76b203e0bba8174]
class InvalidJobbParametersException--><rect codeLine="104" fill="#FEFECE" filter="url(#f1ttvc8gvhq3oo)" height="105.1563" id="InvalidJobbParametersException" style="stroke:#A80036;stroke-width:1.5;" width="686" x="527" y="255.5"/><ellipse cx="769.25" cy="274.4688" fill="#ADD1B2" rx="11" ry="11" style="stroke:#A80036;stroke-width:1.0;"/><path d="M771.5938,270.1406 C770.6563,269.7031 770.0625,269.5625 769.1875,269.5625 C766.5625,269.5625 764.5625,271.6406 764.5625,274.3594 L764.5625,275.4844 C764.5625,278.0625 766.6719,279.9531 769.5625,279.9531 C770.7813,279.9531 771.9375,279.6563 772.6875,279.1094 C773.2656,278.7031 773.5938,278.25 773.5938,277.8594 C773.5938,277.4063 773.2031,277.0156 772.7344,277.0156 C772.5156,277.0156 772.3125,277.0938 772.125,277.2813 C771.6719,277.7656 771.6719,277.7656 771.4844,277.8594 C771.0625,278.125 770.375,278.25 769.6094,278.25 C767.5625,278.25 766.2656,277.1563 766.2656,275.4531 L766.2656,274.3594 C766.2656,272.5781 767.5156,271.2656 769.25,271.2656 C769.8281,271.2656 770.4375,271.4219 770.9063,271.6719 C771.3906,271.9531 771.5625,272.1719 771.6563,272.5781 C771.7188,272.9844 771.75,273.1094 771.8906,273.2344 C772.0313,273.375 772.2656,273.4844 772.4844,273.4844 C772.75,273.4844 773.0156,273.3438 773.1875,273.125 C773.2969,272.9688 773.3281,272.7813 773.3281,272.3594 L773.3281,270.9375 C773.3281,270.5 773.3125,270.375 773.2188,270.2188 C773.0625,269.9531 772.7813,269.8125 772.4844,269.8125 C772.1875,269.8125 771.9844,269.9063 771.7656,270.2188 L771.5938,270.1406 Z " fill="#000000"/><text fill="#000000" font-family="sans-serif" font-size="12" font-style="italic" lengthAdjust="spacingAndGlyphs" textLength="81" x="845.75" y="271.6387">«Serializable»</text><text fill="#000000" font-family="sans-serif" font-size="12" lengthAdjust="spacingAndGlyphs" textLength="193" x="789.75" y="285.6074">InvalidJobbParametersException</text><line style="stroke:#A80036;stroke-width:1.5;" x1="528" x2="1212" y1="293.4375" y2="293.4375"/><line style="stroke:#A80036;stroke-width:1.5;" x1="528" x2="1212" y1="301.4375" y2="301.4375"/><ellipse cx="538" cy="312.4375" fill="#84BE84" rx="3" ry="3" style="stroke:#038048;stroke-width:1.0;"/><text fill="#000000" font-family="sans-serif" font-size="11" lengthAdjust="spacingAndGlyphs" textLength="379" x="547" y="315.6479">InvalidJobbParametersException(): InvalidJobbParametersException</text><ellipse cx="538" cy="325.2422" fill="#84BE84" rx="3" ry="3" style="stroke:#038048;stroke-width:1.0;"/><text fill="#000000" font-family="sans-serif" font-size="11" lengthAdjust="spacingAndGlyphs" textLength="470" x="547" y="328.4526">InvalidJobbParametersException(message: string): InvalidJobbParametersException</text><ellipse cx="538" cy="338.0469" fill="#84BE84" rx="3" ry="3" style="stroke:#038048;stroke-width:1.0;"/><text fill="#000000" font-family="sans-serif" font-size="11" lengthAdjust="spacingAndGlyphs" textLength="625" x="547" y="341.2573">InvalidJobbParametersException(message: string, innerException: Exception): InvalidJobbParametersException</text><polygon fill="#FFFF44" points="538,345.8516,542,349.8516,538,353.8516,534,349.8516" style="stroke:#B38D22;stroke-width:1.0;"/><text fill="#000000" font-family="sans-serif" font-size="11" lengthAdjust="spacingAndGlyphs" textLength="660" x="547" y="354.062">InvalidJobbParametersException(info: SerializationInfo, context: StreamingContext): InvalidJobbParametersException</text><!--MD5=[8db60afef7a3447bbe27c5ed187fdac2]
class Exception--><rect codeLine="113" fill="#FEFECE" filter="url(#f1ttvc8gvhq3oo)" height="48" id="Exception" style="stroke:#A80036;stroke-width:1.5;" width="91" x="1173.5" y="86"/><ellipse cx="1188.5" cy="102" fill="#ADD1B2" rx="11" ry="11" style="stroke:#A80036;stroke-width:1.0;"/><path d="M1190.8438,97.6719 C1189.9063,97.2344 1189.3125,97.0938 1188.4375,97.0938 C1185.8125,97.0938 1183.8125,99.1719 1183.8125,101.8906 L1183.8125,103.0156 C1183.8125,105.5938 1185.9219,107.4844 1188.8125,107.4844 C1190.0313,107.4844 1191.1875,107.1875 1191.9375,106.6406 C1192.5156,106.2344 1192.8438,105.7813 1192.8438,105.3906 C1192.8438,104.9375 1192.4531,104.5469 1191.9844,104.5469 C1191.7656,104.5469 1191.5625,104.625 1191.375,104.8125 C1190.9219,105.2969 1190.9219,105.2969 1190.7344,105.3906 C1190.3125,105.6563 1189.625,105.7813 1188.8594,105.7813 C1186.8125,105.7813 1185.5156,104.6875 1185.5156,102.9844 L1185.5156,101.8906 C1185.5156,100.1094 1186.7656,98.7969 1188.5,98.7969 C1189.0781,98.7969 1189.6875,98.9531 1190.1563,99.2031 C1190.6406,99.4844 1190.8125,99.7031 1190.9063,100.1094 C1190.9688,100.5156 1191,100.6406 1191.1406,100.7656 C1191.2813,100.9063 1191.5156,101.0156 1191.7344,101.0156 C1192,101.0156 1192.2656,100.875 1192.4375,100.6563 C1192.5469,100.5 1192.5781,100.3125 1192.5781,99.8906 L1192.5781,98.4688 C1192.5781,98.0313 1192.5625,97.9063 1192.4688,97.75 C1192.3125,97.4844 1192.0313,97.3438 1191.7344,97.3438 C1191.4375,97.3438 1191.2344,97.4375 1191.0156,97.75 L1190.8438,97.6719 Z " fill="#000000"/><text fill="#000000" font-family="sans-serif" font-size="12" lengthAdjust="spacingAndGlyphs" textLength="59" x="1202.5" y="106.1543">Exception</text><line style="stroke:#A80036;stroke-width:1.5;" x1="1174.5" x2="1263.5" y1="118" y2="118"/><line style="stroke:#A80036;stroke-width:1.5;" x1="1174.5" x2="1263.5" y1="126" y2="126"/><!--MD5=[fe50a4f6767356ff4dcdadb85ef8cbdd]
class IDisposable--><rect codeLine="115" fill="#FEFECE" filter="url(#f1ttvc8gvhq3oo)" height="60.8047" id="IDisposable" style="stroke:#A80036;stroke-width:1.5;" width="103" x="1807.5" y="514"/><ellipse cx="1823.85" cy="530" fill="#B4A7E5" rx="11" ry="11" style="stroke:#A80036;stroke-width:1.0;"/><path d="M1824.8031,526.7813 L1826.5219,526.7813 C1826.9125,526.7813 1827.1,526.75 1827.225,526.6719 C1827.4906,526.5156 1827.6313,526.2344 1827.6313,525.9375 C1827.6313,525.6719 1827.5219,525.4063 1827.2875,525.2344 C1827.1156,525.125 1826.975,525.0938 1826.5219,525.0938 L1821.3813,525.0938 C1820.9438,525.0938 1820.8188,525.1094 1820.6625,525.2031 C1820.4125,525.3594 1820.2563,525.6563 1820.2563,525.9375 C1820.2563,526.2188 1820.3969,526.4688 1820.6156,526.6406 C1820.7719,526.75 1820.9594,526.7813 1821.3813,526.7813 L1823.1,526.7813 L1823.1,533.2969 L1821.3813,533.2969 C1820.9438,533.2969 1820.8188,533.3125 1820.6625,533.4219 C1820.4125,533.5781 1820.2563,533.8594 1820.2563,534.1563 C1820.2563,534.4063 1820.3969,534.6719 1820.6156,534.8281 C1820.7719,534.9531 1820.975,535 1821.3813,535 L1826.5219,535 C1827.2719,535 1827.6313,534.7188 1827.6313,534.1563 C1827.6313,533.875 1827.5219,533.625 1827.2875,533.4531 C1827.1156,533.3281 1826.975,533.2969 1826.5219,533.2969 L1824.8031,533.2969 L1824.8031,526.7813 Z " fill="#000000"/><text fill="#000000" font-family="sans-serif" font-size="12" font-style="italic" lengthAdjust="spacingAndGlyphs" textLength="68" x="1838.15" y="534.1543">IDisposable</text><line style="stroke:#A80036;stroke-width:1.5;" x1="1808.5" x2="1909.5" y1="546" y2="546"/><ellipse cx="1818.5" cy="557" fill="none" rx="3" ry="3" style="stroke:#038048;stroke-width:1.0;"/><text fill="#000000" font-family="sans-serif" font-size="11" lengthAdjust="spacingAndGlyphs" textLength="77" x="1827.5" y="560.2104">Dispose: void</text><line style="stroke:#A80036;stroke-width:1.5;" x1="1808.5" x2="1909.5" y1="566.8047" y2="566.8047"/><!--MD5=[067ef57f2d74428f0e3f888d96fb9c2b]
reverse link AbstractJobb to AbstractJobbParameters--><path codeLine="120" d="M2368.97,184.402 C2309.3,211.597 2243.71,241.495 2192.24,264.957 " fill="none" id="AbstractJobb-backto-AbstractJobbParameters" style="stroke:#A80036;stroke-width:1.0;"/><polygon fill="#FFFFFF" points="2380.81,179.001,2373.6919,177.8469,2369.8888,183.9736,2377.0069,185.1277,2380.81,179.001" style="stroke:#A80036;stroke-width:1.0;"/><!--MD5=[a27b472c4ea82b9b7694160ea395cdb4]
reverse link AbstractJobb to CopyFileJobb--><path codeLine="122" d="M2530,199.327 C2530,288.654 2530,423.445 2530,494.949 " fill="none" id="AbstractJobb-backto-CopyFileJobb" style="stroke:#A80036;stroke-width:1.0;"/><polygon fill="none" points="2523,199.054,2530,179.054,2537,199.054,2523,199.054" style="stroke:#A80036;stroke-width:1.0;"/><!--MD5=[191e7235f1d07018442405d4a81cfb16]
reverse link AbstractJobbParameters to CopyFileJobbParameters--><path codeLine="123" d="M2009.74,364.273 C1995.68,377.121 1983.13,392.077 1975,409 C1936.88,488.315 1920.62,537.81 1975,607 C2018.39,662.215 2213.44,692.831 2330.75,706.547 " fill="none" id="AbstractJobbParameters-backto-CopyFileJobbParameters" style="stroke:#A80036;stroke-width:1.0;"/><polygon fill="none" points="2005.62,358.597,2025.46,351.165,2014.59,369.35,2005.62,358.597" style="stroke:#A80036;stroke-width:1.0;"/><!--MD5=[0cfa24be66830010881c8837eb60972d]
reverse link IDisposable to CopyFileJobbParameters--><path codeLine="124" d="M1901.89,588.46 C1910.64,595.49 1920.2,602.074 1930,607 C2059.88,672.265 2228.51,698.531 2330.55,708.919 " fill="none" id="IDisposable-backto-CopyFileJobbParameters" style="stroke:#A80036;stroke-width:1.0;"/><polygon fill="none" points="1897.1,593.576,1886.64,575.151,1906.31,583.028,1897.1,593.576" style="stroke:#A80036;stroke-width:1.0;"/><!--MD5=[8d34679d45e5e83cc71bc47a0889db5c]
reverse link CopyFileJobb to CopyFileJobbParameters--><path codeLine="125" d="M2491.74,605.166 C2478.82,625.322 2464.55,647.571 2452.24,666.778 " fill="none" id="CopyFileJobb-backto-CopyFileJobbParameters" style="stroke:#A80036;stroke-width:1.0;"/><polygon fill="#FFFFFF" points="2498.76,594.215,2492.154,597.1065,2492.2824,604.3165,2498.8884,601.425,2498.76,594.215" style="stroke:#A80036;stroke-width:1.0;"/><!--MD5=[6d94126a8d4572d0dfa0cdc6e70967e8]
reverse link AbstractJobb to EmptyDirectoryJobb--><path codeLine="127" d="M2622.56,192.364 C2723.97,281.508 2883.29,421.561 2966.77,494.949 " fill="none" id="AbstractJobb-backto-EmptyDirectoryJobb" style="stroke:#A80036;stroke-width:1.0;"/><polygon fill="none" points="2617.82,197.516,2607.42,179.054,2627.06,187.001,2617.82,197.516" style="stroke:#A80036;stroke-width:1.0;"/><!--MD5=[59b0a40097fee718bc6132e3cd2156e5]
reverse link AbstractJobbParameters to EmptyDirectoryJobbParameters--><path codeLine="128" d="M2031.58,365.892 C2020.32,378.801 2010.29,393.365 2004,409 C1971.16,490.641 1945.42,541.331 2004,607 C2082.02,694.464 2414.07,639.503 2528,667 C2541.72,670.312 2555.97,674.673 2569.78,679.425 " fill="none" id="AbstractJobbParameters-backto-EmptyDirectoryJobbParameters" style="stroke:#A80036;stroke-width:1.0;"/><polygon fill="none" points="2026.89,360.667,2045.75,351.006,2037.03,370.319,2026.89,360.667" style="stroke:#A80036;stroke-width:1.0;"/><!--MD5=[cb2ade586a4f67034575a490142f0c21]
reverse link IDisposable to EmptyDirectoryJobbParameters--><path codeLine="129" d="M1900.38,588.565 C1909.46,595.837 1919.52,602.482 1930,607 C2175.3,712.716 2267.91,606.154 2528,667 C2541.98,670.27 2556.49,674.672 2570.52,679.494 " fill="none" id="IDisposable-backto-EmptyDirectoryJobbParameters" style="stroke:#A80036;stroke-width:1.0;"/><polygon fill="none" points="1895.53,593.625,1885.2,575.124,1904.81,583.145,1895.53,593.625" style="stroke:#A80036;stroke-width:1.0;"/><!--MD5=[3f3fec80c0ed9bcbf23e2c1a196557d0]
reverse link EmptyDirectoryJobb to EmptyDirectoryJobbParameters--><path codeLine="130" d="M2905.62,599.706 C2849.65,625.774 2784.08,656.311 2734.34,679.479 " fill="none" id="EmptyDirectoryJobb-backto-EmptyDirectoryJobbParameters" style="stroke:#A80036;stroke-width:1.0;"/><polygon fill="#FFFFFF" points="2917.41,594.215,2910.2824,593.1208,2906.531,599.2793,2913.6586,600.3735,2917.41,594.215" style="stroke:#A80036;stroke-width:1.0;"/><!--MD5=[ea191aad697e7d920d0413e3e5524b1e]
reverse link AbstractJobbParameters to Schedule--><path codeLine="132" d="M2113.64,364.162 C2122.37,399.453 2133.71,445.29 2142.74,481.79 " fill="none" id="AbstractJobbParameters-backto-Schedule" style="stroke:#A80036;stroke-width:1.0;"/><polygon fill="#FFFFFF" points="2110.44,351.195,2107.9984,357.9802,2113.3225,362.8437,2115.7641,356.0585,2110.44,351.195" style="stroke:#A80036;stroke-width:1.0;"/><!--MD5=[757422ec14e4b5c93d7486fe62f2641c]
reverse link Exception to InvalidJobbParametersException--><path codeLine="134" d="M1160.31,143.958 C1106.09,174.409 1024.67,220.134 961.844,255.42 " fill="none" id="Exception-backto-InvalidJobbParametersException" style="stroke:#A80036;stroke-width:1.0;"/><polygon fill="none" points="1157.07,137.75,1177.94,134.06,1163.93,149.957,1157.07,137.75" style="stroke:#A80036;stroke-width:1.0;"/><!--MD5=[05e9bc0f869a734f3275a08ee69b9ab1]
reverse link Exception to PeriodValueOutOfBoundsException--><path codeLine="135" d="M1277.85,143.958 C1332.23,174.409 1413.88,220.134 1476.89,255.42 " fill="none" id="Exception-backto-PeriodValueOutOfBoundsException" style="stroke:#A80036;stroke-width:1.0;"/><polygon fill="none" points="1274.21,149.94,1260.18,134.06,1281.05,137.725,1274.21,149.94" style="stroke:#A80036;stroke-width:1.0;"/><!--MD5=[a0d21b27eb09b879f5198e7133c1eecc]
link JobbReturnCode to MillisecondsCalculator--><!--MD5=[986ab63de512f8dbdd5806a98c8d4a2c]
link JobbReturnCode to Period--><!--MD5=[2fb3fb76dca441bc3e36b7aba341ed66]
@startuml
package Models <<Folder>> 
{
    abstract class AbstractJobbParameters
    {
        +Name: string
        +Schedule: Schedule
        +ReturnCode: JobbReturnCode
    }
    
    abstract class AbstractJobb
    {
        #Timer: System.Timers.Timer
        -_parameters: AbstractJobbParameters
        #AbstractJobb(parameters: AbstractJobbParameters): AbstractJobb
        {abstract} +Execute(): JobbReturnCode
        +SetTimer(): void
        #AreParametersValid(obj object): bool
        #TimerElapsed(source: object, e: ElapsedEventArgs)
    }
    
    package Implementations <<Folder>>
    {
        package Jobbs <<Folder>>
        {
            class CopyFileJobb
            {
                +Parameters: CopyFileJobbParameters
                +CopyFileJobb(parameters: CopyFileJobbParameters): CopyFileJobb
                +Dispose(): void
                +Execute(): JobbReturnCode
            }
            
            class CopyFileJobbParameters
            {
                +FileName: string
                +SourceDirectory: string
                +TargetDirectory: string
                +Dispose(): void
            }
            
            class EmptyDirectoryJobb
            {
                +Parameters: EmptyDirectoryJobbParameters
                +EmptyDirectoryJobb(parameters: EmptyDirectoryJobbParameters): EmptyDirectoryJobb
                +Dispose(): void
                +Execute(): JobbReturnCode
            }
            
            class EmptyDirectoryJobbParameters
            {
                +TargetDirectory: string
                +Dispose(): void
            }
        }
        
        class Schedule
        {
            +Period: Period
            +Unit: int
            -_unit: int
            {static}-GetExceptionMessage: string
            +Schedule(): Schedule
            +Schedule(period: Period, unit: int): Schedule
        }
    }
}

package Utility <<Folder>>
{
    enum JobbReturnCode
    {
        Success
        Error
        Waiting
    }
    
    class MillisecondsCalculator
    {
        {static}+GetMilliseconds(schedule: Schedule): ulong
    }
    
    enum Period
    {
        Seconds
        Minutes
        Hours
        Days
        Weeks
        Months
        Years
    }
}

package Exceptions <<Folder>>
{
    class PeriodValueOutOfBoundsException <<Serializable>>
    {
        +PeriodOutOfBoundException(): PeriodOutOfBoundException
        +PeriodOutOfBoundException(message: string): PeriodOutOfBoundException
        +PeriodOutOfBoundException(message: string, innerException: Exception): PeriodOutOfBoundException
        #PeriodOutOfBoundException(info: SerializationInfo, context: StreamingContext): PeriodOutOfBoundException
    }
    
    class InvalidJobbParametersException <<Serializable>>
    {
        +InvalidJobbParametersException(): InvalidJobbParametersException
        +InvalidJobbParametersException(message: string): InvalidJobbParametersException
        +InvalidJobbParametersException(message: string, innerException: Exception): InvalidJobbParametersException
        #InvalidJobbParametersException(info: SerializationInfo, context: StreamingContext): InvalidJobbParametersException
    }
}

class Exception{}

interface IDisposable
{
    +Dispose: void
}

AbstractJobb o- - AbstractJobbParameters

AbstractJobb <|- - CopyFileJobb
AbstractJobbParameters <|- - CopyFileJobbParameters
IDisposable <|- - CopyFileJobbParameters
CopyFileJobb o- - CopyFileJobbParameters

AbstractJobb <|- - EmptyDirectoryJobb
AbstractJobbParameters <|- - EmptyDirectoryJobbParameters
IDisposable <|- - EmptyDirectoryJobbParameters
EmptyDirectoryJobb o- - EmptyDirectoryJobbParameters

AbstractJobbParameters o- - Schedule

Exception <|- - InvalidJobbParametersException
Exception <|- - PeriodValueOutOfBoundsException
@enduml

PlantUML version 1.2020.23beta3(Unknown compile time)
(GPL source distribution)
Java Runtime: Java(TM) SE Runtime Environment
JVM: Java HotSpot(TM) 64-Bit Server VM
Default Encoding: UTF-8
Language: en
Country: US
--></g></svg>